@startuml

package javafx.application{
class Application{
}
}


package moteurJeu{

class MoteurJeu{
- <static> width: double
- <static> height: double
- <static> FPS: int
+ <static> launch(jeu: Jeu, dessin: DessinJeu)
+ <static> setTaille(width: double, height: double)
+ <static> setFPS(FPS: int)
+ start(primaryStage: Stage)
+ startAnimation(canvas: Canvas)
}

Application <|-- MoteurJeu



interface Jeu{
+ init()
+ update(secondes: double, clavier: Clavier)
+ etreFini(): boolean
}

MoteurJeu "1" --> "1" Jeu : - <static> jeu


interface DessinJeu{
+ dessinerJeu(jeu: Jeu, canvas: Canvas)
}

MoteurJeu "1" --> "1" DessinJeu : - <static> dessin

class Clavier{
+ haut: boolean
+ bas: boolean
+ gauche: boolean
+ droite: boolean
+ attaque : boolean
- h : String
- b : String
- g : String
- d : String
- a : String
+ appuyerTouche(event : KeyEvent)
+ relacherTouche(event : KeyEvent)
}

MoteurJeu "1" --> "1" Clavier : - clavier
}

package gameLaby{

class LabyJeu{
    + labyJeu()
    + update(double, Clavier)
    + init()
    + etreFini() : boolean
    + getLaby() : Labyrinthe
}
Jeu <|.. LabyJeu

class LabyDessin{
    + dessinerJeu(Jeu, Canvas)
}

class Labyrinthe{
    + {static} MUR : char
    + {static} PJ : char
    + {static} VIDE : char
    + {static} MONSTRE : char
    + {static} FANTOME : char
    + {static} TROLL : char
    + {static} AMULETTE : char
    + {static} CASEPIEGEE : char
    + {static} CASEDECLENCHEUR : char
    + {static} HAUT : String
    + {static} BAS : String
    + {static} GAUCHE : String
    + {static} DROITE : String
    + murs : boolean[][]
    + cases : ArrayList<Case>


    + {static} getSuivant(int, int, String) : int[]
    + Labyrinthe(String)
    + deplacerPerso(String)
    + verifierPresenceCase(int, int, Perso)
    + etreFini() : boolean
    + getLengthY() : int
    + getLength() : int
    + getMur(int, int) : boolean
    + faireActionMonstres()
    + deplacerMonstre(Monstre m)
    + ettreLibre(int, int) : boolean
    + genererGraphe() : GrapheListe
    + deplacerMonstreIntelligent(Monstre m)
    + verifierPresenceMonstreCaseAdjacente(int : x, int :y) : ArrayList<Monstre>
    + verifierPresenceHerosCaseAdjacente(int : x, int : y) : boolean
    + attaquerMonstresAutour():
}

class Entite{
    + x : int
    + y : int
    + Entite(int, int)
    + etrePresent(int, int) : boolean
    + getX() : int
    + getY() : int
    + setX(int)
    + setY(int)
}
abstract class Perso{
    - pv : int
    + Perso(int, int, int)
    + abstract attaquer(Perso)
    + changerPv(int)
    + getPv() : int
    + etreMort() : boolean
}

Entite <|-- Perso

class Monstre{
    + Monstre(int, int, int)
    + attaquer(Perso)
}

class Heros{
    + Heros(int, int, int)
    + attaquer(Perso)
}

class Case{
    - trouvee : boolean
    + Case(int, int)
    + equals(Object) : boolean
    + setTrouvee()
    + getTrouvee() : boolean
}
Entite <|-- Case

class CasePiegee{
    + CasePiegee(int, int)
}
Case <|-- CasePiegee

class CaseDeclencheur{
    + CaseDeclencheur(int, int)
}
Case <|-- CaseDeclencheur

class Objet{
    + Object(int, int)
}
Entite <|-- Objet

class Amulette{
    - possede : boolean
    + Amulette(int, int)
    + setPossede()
    + getPossede() : boolean
}

class Troll{
    - ajouterVieTroll : boolean
    + Troll(int, int, int)
    + getAjouterVieTroll() : boolean
    + setAjouterVieTroll(boolean)
}

class Fantome{
    + Fantome(int, int, int)
}

Objet <|-- Amulette


Labyrinthe "1" -> "1" Heros: - heros
Labyrinthe "1" -> "0..*" Monstre : - monstre
Labyrinthe "1" -> "1" Entite : - depart
Labyrinthe "1" -> "1" Amulette : - amulette
LabyJeu "1" -> "1" Labyrinthe : - laby

Perso <|-- Monstre
Perso <|-- Heros
DessinJeu <|.. LabyDessin

Monstre <|-- Fantome
Monstre <|-- Troll

}


package Graphe{

class Arc{
    - dest : String
    - cout : double
    + Arc(String, double)
    + getDest() : String
    + getCout() : double
}

class Dijkstra{
    + resoudre(Graphe, String) : Valeur
}

interface Graphe{
    + listeNoeuds() : List<String>
    + suivants(String) : List<Arc>
}

class GrapheLabyrinthe{
    + GrapheLabyrinthe(Labyrinthe)
    + listeNoeuds() : List<String>
    + suivants(String) : List<Arc>
}

class GrapheListe{
    - ensNom : List<String>
    + GrapheListe()
    + suivants(String, String, double)
    + listeNoeuds() : List<String>
    + toString() : String
}

class Noeud{
    - nom : String
    + Noeud(String)
    + equals(Object) : boolean
    + ajouterArc(String, double)
    + getArc() : List<Arc>
    + getNom() : String
}

class Valeur{
    - valeur : Map<String, Double>
    - parent : Map<String, String>
    + Valeur()
    + setValeur(String, double)
    + setParent(String, String)
    + getParent(String) : String
    + getValeur(String) : double
    + toString() : String
    + calculerChemin(String) : List<String>
}

GrapheLabyrinthe "1" -> "1" Labyrinthe : - labyrinthe
GrapheListe "1" -> "1..*" Noeud : - ensNoeud
Noeud "1" -> "1..*" Arc : - adj

Graphe <|.. GrapheLabyrinthe
Graphe <|.. GrapheListe

}


@enduml